Motion_kv08_l
version=1
nRows=10
nColumns=43
inDegrees=yes
endheader
time	pelvis_tilt	pelvis_list	pelvis_rotation	pelvis_tx	pelvis_ty	pelvis_tz	hip_flexion_r	hip_adduction_r	hip_rotation_r	knee_angle_r	ankle_angle_r	subtalar_angle_r	mtp_angle_r	hip_flexion_l	hip_adduction_l	hip_rotation_l	knee_angle_l	ankle_angle_l	subtalar_angle_l	mtp_angle_l	lumbar_extension	lumbar_bending	lumbar_rotation	neck_flexion	neck_lateral_bending	neck_rotation	arm_flex_r	arm_add_r	arm_rot_r	elbow_flex_r	pro_sup_r	wrist_flex_r	wrist_dev_r	hand_finger_flex_r	arm_flex_l	arm_add_l	arm_rot_l	elbow_flex_l	pro_sup_l	wrist_flex_l	wrist_dev_l	hand_finger_flex_l
      0.59000000	     -0.18248660	    -14.80284863	     81.07634107	      0.00088548	      1.52386207	      1.33422223	     77.67125334	      3.39153415	     -7.00373570	   -142.67808532	     17.06049107	      3.30552215	     -8.36313443	     84.93939736	     -6.98238803	     -1.24186722	   -141.16402860	     11.54407615	     23.36863378	     23.46314359	    -73.05064022	     -5.66141280	      2.34921485	     58.11258430	      1.39582834	     -0.39670284	     62.34882489	    -19.31665107	     24.02030658	     38.10436005	    154.10793545	    -34.30599709	    -17.10593718	     23.28722834	     60.40197654	    -19.24227930	     25.36135653	     38.50761377	    158.28504627	    -36.14904705	     -3.09459251	    -15.31403896
      0.59250000	     -0.19163507	    -14.24944700	     81.08849507	      0.00097554	      1.52653738	      1.33082918	     78.16557853	      3.41503840	     -7.31384263	   -143.47529831	     17.14331754	      3.41811638	     -8.32817184	     85.47760327	     -7.05851469	     -1.34866037	   -141.30449612	     11.62096565	     23.44562515	     23.48230435	    -73.70498770	     -5.67789565	      2.27452225	     58.25395151	      1.36092591	     -0.38609095	     62.36305066	    -19.30341140	     23.98919548	     38.03690476	    154.09893466	    -34.25923327	    -17.04653362	     23.22654657	     60.42405180	    -19.19633317	     25.35451653	     38.50643425	    158.27977401	    -36.08668340	     -3.07082234	    -15.35981809
      0.59500000	     -0.34235054	    -13.79053716	     81.05079231	      0.00087404	      1.52894282	      1.32751938	     78.80043724	      3.41296797	     -7.22763450	   -144.24873029	     17.24526539	      4.46564797	     -6.72446042	     86.08834447	     -7.10692656	     -1.53428240	   -141.35828212	     11.66524073	     23.92750397	     24.15646463	    -74.18483127	     -5.71732985	      1.98278347	     58.14674639	      1.33056903	     -0.36328631	     62.35753575	    -19.42850796	     24.77772158	     38.63634445	    154.58107373	    -30.78765927	    -14.63124097	     16.37922726	     60.11862629	    -19.43078868	     25.14396407	     39.40698966	    159.27536275	    -32.88760475	     -1.72905223	    -20.92831638
      0.59750000	     -0.29466374	    -13.52597993	     81.13885759	      0.00086639	      1.53137883	      1.32415027	     79.53831786	      3.40846574	     -7.56726828	   -144.86768763	     17.34000870	      4.84230257	     -6.59684377	     86.92442605	     -7.14253507	     -1.48081134	   -141.34222511	     11.63851224	     23.98735269	     24.19176678	    -74.59125074	     -5.62328207	      1.96873400	     58.60318720	      1.21488443	     -0.42765722	     62.31292843	    -19.27932682	     24.46014856	     38.56089887	    154.44399389	    -30.57813009	    -14.37682866	     15.85405998	     60.05784102	    -19.41886176	     25.05303096	     39.49403445	    159.29118407	    -32.71269203	     -1.64158639	    -21.30191585
      0.60000000	     -0.38724237	    -12.95933759	     81.13828730	      0.00075421	      1.53397052	      1.32070012	     79.98685419	      3.38395020	     -7.62976402	   -145.48825019	     17.21136332	      5.23911976	     -5.08171730	     87.37623582	     -7.21499842	     -1.68733799	   -141.29218623	     11.63267523	     23.96376626	     24.70459809	    -75.17758961	     -5.65868869	      1.74284668	     58.48377309	      1.30870930	     -0.41536716	     62.23189895	    -19.40690756	     24.75715740	     39.25307185	    155.20644448	    -26.23297758	    -12.65200120	      7.73097443	     59.80485284	    -19.48670494	     24.61758825	     40.17695087	    160.95386971	    -29.70390902	     -0.43022240	    -26.67216802
      0.60250000	     -0.31759046	    -12.53384294	     81.22364979	      0.00065160	      1.53639519	      1.31723530	     80.48204886	      3.35488633	     -7.83781556	   -146.00565096	     17.35319343	      5.99267854	     -4.28436883	     87.99467159	     -7.28535354	     -1.60484092	   -141.19601533	     11.60794566	     24.05646017	     24.79831859	    -75.67792135	     -5.57301391	      1.68727178	     58.60387806	      1.35287324	     -0.48691471	     62.00039709	    -19.30887475	     24.17758603	     39.78740452	    156.08688929	    -23.44073437	    -11.81470753	      2.90318177	     59.57155685	    -19.58007614	     24.31240736	     40.64144335	    161.50144392	    -28.12659460	     -0.11264429	    -29.25224903
      0.60500000	     -0.25129323	    -12.11042375	     81.31335194	      0.00055780	      1.53887449	      1.31376624	     80.95444904	      3.32778384	     -8.13133199	   -146.43209653	     17.46512420	      6.22129907	     -4.21693809	     88.57359476	     -7.35637439	     -1.56280870	   -141.02417634	     11.58867924	     23.87020225	     24.77862731	    -76.18865093	     -5.46727546	      1.70088925	     58.77073493	      1.18311728	     -0.57848495	     61.93040336	    -19.16926883	     23.92837532	     39.73283968	    155.92542985	    -23.33818353	    -11.38921416	      2.46277952	     59.49180366	    -19.59490891	     24.39582191	     40.71018198	    161.64884881	    -28.03628699	      0.05447406	    -29.41121959
      0.60750000	     -0.29107964	    -11.64645129	     81.36463708	      0.00034112	      1.54128900	      1.31024866	     81.37560775	      3.22580405	     -8.23526292	   -146.81659605	     17.49881709	      6.56003590	     -3.26324841	     89.06216345	     -7.43685493	     -1.66568854	   -140.79231903	     11.64649222	     23.63932090	     24.46839557	    -76.69134474	     -5.43531939	      1.54243604	     58.76716685	      1.26103259	     -0.60317459	     61.79940173	    -19.29001338	     24.12185329	     40.41385743	    156.03452379	    -18.92239120	    -10.22613361	     -6.36888033	     59.14082010	    -19.56572972	     23.69481201	     41.31660115	    163.54763159	    -25.95021546	      1.09356813	    -32.71144100
      0.61000000	     -0.22101128	    -11.21318186	     81.45757223	      0.00033478	      1.54371745	      1.30674539	     81.77238931	      3.16216240	     -8.46900521	   -147.07971822	     17.59859171	      6.89212096	     -3.21835875	     89.57174987	     -7.55497426	     -1.55810840	   -140.52746685	     11.70554144	     23.49272291	     24.44626984	    -77.19654067	     -5.34800402	      1.51723469	     58.91014845	      1.28823193	     -0.68520074	     61.74312501	    -19.18795324	     24.05753378	     40.42144935	    156.05310647	    -18.72650199	     -9.94621916	     -6.62971612	     59.05836116	    -19.69985359	     23.87304415	     41.41443296	    163.64485835	    -25.81390833	      1.08193713	    -32.76169727
      0.61250000	     -0.40612336	    -10.75619571	     81.45822718	      0.00012261	      1.54626289	      1.30321490	     82.15140120	      3.01888529	     -8.31756740	   -147.30952625	     17.73762707	      7.38213810	     -2.55036015	     89.94173434	     -7.58700161	     -1.79402995	   -140.10052702	     11.82144193	     23.12109883	     23.82274760	    -77.71747196	     -5.36699396	      1.20874739	     58.96605107	      1.29296795	     -0.71296267	     61.64689429	    -19.24060468	     24.22133831	     41.05178751	    156.44192905	    -14.72405622	     -8.84322817	    -14.39335769	     58.75177541	    -19.77575821	     23.42586939	     41.98784092	    165.01167130	    -24.27487058	      2.03581865	    -34.87079126
